<svg id="Group_16481" data-name="Group 16481" xmlns="http://www.w3.org/2000/svg" xmlns:xlink="http://www.w3.org/1999/xlink" width="92.167" height="86.587" viewBox="0 0 92.167 86.587">
  <defs>
    <clipPath id="clip-path">
      <rect id="Rectangle_8443" data-name="Rectangle 8443" width="92.167" height="86.587" fill="none"/>
    </clipPath>
  </defs>
  <g id="Group_16480" data-name="Group 16480" clip-path="url(#clip-path)">
    <path id="Path_41038" data-name="Path 41038" d="M23.766,156.7a.928.928,0,0,1-.912-.749c-1.657-8.393-3.306-16.877-4.9-25.216a.929.929,0,1,1,1.825-.349c1.463,7.644,2.97,15.409,4.487,23.115,4.226-5.831,8.485-11.734,12.679-17.573a.929.929,0,0,1,1.509,1.084c-4.61,6.419-9.3,12.914-13.936,19.306a.929.929,0,0,1-.752.384" transform="translate(-11.27 -81.454)" fill="#2d2d2d"/>
    <path id="Path_41039" data-name="Path 41039" d="M97.974,177.59a.913.913,0,0,1-.184-.019.928.928,0,0,1-.724-.715c-1.738-8.054-3.474-16.2-5.159-24.218a.929.929,0,1,1,1.818-.382c1.54,7.324,3.122,14.758,4.709,22.13,4.326-6.174,8.673-12.41,12.939-18.561a.929.929,0,0,1,1.527,1.059c-4.669,6.732-9.436,13.566-14.166,20.31a.929.929,0,0,1-.76.4" transform="translate(-57.738 -95.207)" fill="#2d2d2d"/>
    <path id="Path_41040" data-name="Path 41040" d="M173.912,190.619a.93.93,0,0,1-.905-.719c-1.8-7.745-3.6-15.552-5.337-23.2a.929.929,0,0,1,1.812-.413c1.585,6.966,3.215,14.06,4.853,21.119,4.38-6.492,8.787-13.061,13.118-19.554A.929.929,0,0,1,189,168.88c-4.726,7.086-9.543,14.262-14.317,21.33a.929.929,0,0,1-.77.409" transform="translate(-105.342 -104.031)" fill="#2d2d2d"/>
    <path id="Path_41041" data-name="Path 41041" d="M91.546,133.24h-.034A282.466,282.466,0,0,1,1.088,114.951a.929.929,0,1,1,.66-1.737,280.6,280.6,0,0,0,89.83,18.168.929.929,0,0,1-.033,1.858" transform="translate(-0.307 -71.101)" fill="#2d2d2d"/>
    <path id="Path_41042" data-name="Path 41042" d="M189.249,43.548a.928.928,0,0,1-.752-.384c-4.663-6.429-9.352-12.924-13.935-19.306a.929.929,0,0,1,1.509-1.084c4.172,5.809,8.431,11.712,12.679,17.573,1.511-7.673,3.018-15.438,4.488-23.115a.929.929,0,1,1,1.825.349c-1.6,8.379-3.253,16.863-4.9,25.216a.928.928,0,0,1-.912.749" transform="translate(-109.578 -10.354)" fill="#2d2d2d"/>
    <path id="Path_41043" data-name="Path 41043" d="M114.216,64.437a.929.929,0,0,1-.76-.4c-4.725-6.736-9.491-13.57-14.166-20.31a.929.929,0,0,1,1.527-1.059c4.271,6.157,8.617,12.393,12.939,18.561,1.588-7.373,3.169-14.807,4.709-22.13a.929.929,0,1,1,1.818.382c-1.685,8.014-3.42,16.163-5.159,24.218a.928.928,0,0,1-.724.715.913.913,0,0,1-.184.019" transform="translate(-62.286 -24.107)" fill="#2d2d2d"/>
    <path id="Path_41044" data-name="Path 41044" d="M37.722,77.466a.929.929,0,0,1-.77-.409c-4.787-7.086-9.6-14.263-14.317-21.33A.929.929,0,1,1,24.181,54.7C28.5,61.172,32.908,67.742,37.3,74.25c1.633-7.039,3.263-14.134,4.853-21.119a.929.929,0,1,1,1.812.412c-1.746,7.676-3.541,15.483-5.336,23.2a.93.93,0,0,1-.905.719" transform="translate(-14.125 -32.931)" fill="#2d2d2d"/>
    <path id="Path_41045" data-name="Path 41045" d="M.929,20.087A.929.929,0,0,1,.9,18.23,280.6,280.6,0,0,0,90.727.06a.929.929,0,0,1,.66,1.737A282.449,282.449,0,0,1,.963,20.086H.929" transform="translate(0 0)" fill="#2d2d2d"/>
    <path id="Path_41046" data-name="Path 41046" d="M51.644,13.966a.929.929,0,0,1-.657-1.586L53.93,9.436a.929.929,0,1,1,1.314,1.314L52.3,13.694a.926.926,0,0,1-.657.272" transform="translate(-31.867 -5.758)" fill="#2d2d2d"/>
    <path id="Path_41047" data-name="Path 41047" d="M32.342,35.653a.929.929,0,0,1-.691-1.55l1.643-1.828a.929.929,0,1,1,1.382,1.242l-1.643,1.828a.928.928,0,0,1-.692.308" transform="translate(-19.739 -20.086)" fill="#2d2d2d"/>
    <path id="Path_41048" data-name="Path 41048" d="M31.786,13.966a.926.926,0,0,1-.657-.272L28.185,10.75A.929.929,0,1,1,29.5,9.436l2.943,2.943a.929.929,0,0,1-.657,1.586" transform="translate(-17.539 -5.758)" fill="#2d2d2d"/>
    <path id="Path_41049" data-name="Path 41049" d="M208.1,108.32a.929.929,0,0,1-.657-1.586l2.943-2.943A.929.929,0,0,1,211.7,105.1l-2.943,2.943a.926.926,0,0,1-.657.272" transform="translate(-130.174 -65.046)" fill="#2d2d2d"/>
    <path id="Path_41050" data-name="Path 41050" d="M185.293,131.122a.929.929,0,0,1-.657-1.586l2.944-2.943a.929.929,0,1,1,1.314,1.314l-2.943,2.943a.926.926,0,0,1-.657.272" transform="translate(-115.847 -79.374)" fill="#2d2d2d"/>
    <path id="Path_41051" data-name="Path 41051" d="M188.236,108.32a.926.926,0,0,1-.657-.272l-2.943-2.943a.929.929,0,0,1,1.314-1.314l2.944,2.943a.929.929,0,0,1-.657,1.586" transform="translate(-115.846 -65.046)" fill="#2d2d2d"/>
    <path id="Path_41052" data-name="Path 41052" d="M211.039,131.122a.926.926,0,0,1-.657-.272l-2.943-2.943a.929.929,0,0,1,1.314-1.314l2.943,2.943a.929.929,0,0,1-.657,1.586" transform="translate(-130.174 -79.374)" fill="#2d2d2d"/>
    <path id="Path_41053" data-name="Path 41053" d="M54.181,221.4a.929.929,0,0,1-.657-1.586l2.943-2.943a.929.929,0,0,1,1.314,1.314l-2.943,2.943a.926.926,0,0,1-.657.272" transform="translate(-33.461 -136.103)" fill="#2d2d2d"/>
    <path id="Path_41054" data-name="Path 41054" d="M57.124,198.6a.927.927,0,0,1-.657-.272l-2.943-2.943a.929.929,0,0,1,1.314-1.314l2.943,2.943a.929.929,0,0,1-.657,1.586" transform="translate(-33.461 -121.775)" fill="#2d2d2d"/>
    <path id="Path_41055" data-name="Path 41055" d="M79.927,221.4a.926.926,0,0,1-.657-.272l-2.943-2.943a.929.929,0,0,1,1.314-1.314l2.943,2.943a.929.929,0,0,1-.657,1.586" transform="translate(-47.789 -136.103)" fill="#2d2d2d"/>
  </g>
</svg>
