<svg id="Group_16483" data-name="Group 16483" xmlns="http://www.w3.org/2000/svg" xmlns:xlink="http://www.w3.org/1999/xlink" width="96.941" height="81.425" viewBox="0 0 96.941 81.425">
  <defs>
    <clipPath id="clip-path">
      <rect id="Rectangle_8444" data-name="Rectangle 8444" width="96.941" height="81.425" fill="none"/>
    </clipPath>
  </defs>
  <g id="Group_16482" data-name="Group 16482" clip-path="url(#clip-path)">
    <path id="Path_41056" data-name="Path 41056" d="M96.631,78.382l-11.608-18.5V4.139A4.144,4.144,0,0,0,80.883,0H4.14A4.144,4.144,0,0,0,0,4.139V76.883a4.144,4.144,0,0,0,4.14,4.14H80.883a4.145,4.145,0,0,0,4.14-4.14V74.5l8.744,6.52a1.959,1.959,0,0,0,2.529-.132,1.96,1.96,0,0,0,.335-2.511m-13.281-1.5a2.47,2.47,0,0,1-2.468,2.467H4.14a2.47,2.47,0,0,1-2.467-2.467V4.139A2.47,2.47,0,0,1,4.14,1.672H80.883a2.47,2.47,0,0,1,2.468,2.467v53.08l-1.779-2.835A3.975,3.975,0,0,0,80.7,53.4L66.161,41.7a7.607,7.607,0,0,0-.007-4.338c-1.376-4.6-6.649-7.7-9.035-8.265-8.461-2-10.043-6.371-10.055-6.408a.836.836,0,0,0-1.627.162C44.027,35.4,44.188,40.322,47.909,44.724a11.029,11.029,0,0,0,8.233,4.292c.1,0,.189,0,.283,0a10.2,10.2,0,0,0,2.489-.311l11.566,14.8a3.309,3.309,0,0,0,.634.62l12.237,9.125ZM71.5,62.1,60.588,48.134A8.975,8.975,0,0,0,63.434,46.2a12.481,12.481,0,0,0,2.075-2.874L79.282,54.409ZM62.218,45.05a8.234,8.234,0,0,1-6.03,2.295,9.51,9.51,0,0,1-7-3.7c-2.921-3.456-3.468-7.218-2.344-18.224,1.456,1.71,4.346,3.993,9.891,5.306,1.743.413,6.628,3.136,7.819,7.117.714,2.388-.071,4.813-2.334,7.207M95.162,79.664a.284.284,0,0,1-.4.02L72.718,63.243,80.4,55.659,95.215,79.271a.284.284,0,0,1-.052.393" fill="#2d2d2d"/>
    <path id="Path_41057" data-name="Path 41057" d="M16.333,38.4H87.544a.836.836,0,1,0,0-1.672H16.333a.836.836,0,1,0,0,1.672" transform="translate(-9.738 -23.075)" fill="#2d2d2d"/>
    <path id="Path_41058" data-name="Path 41058" d="M18.573,19.5A3.076,3.076,0,1,0,15.5,16.42,3.079,3.079,0,0,0,18.573,19.5m0-4.479a1.4,1.4,0,1,1-1.4,1.4,1.405,1.405,0,0,1,1.4-1.4" transform="translate(-9.738 -8.385)" fill="#2d2d2d"/>
    <path id="Path_41059" data-name="Path 41059" d="M40.365,19.5a3.076,3.076,0,1,0-3.076-3.076A3.079,3.079,0,0,0,40.365,19.5m0-4.479a1.4,1.4,0,1,1-1.4,1.4,1.405,1.405,0,0,1,1.4-1.4" transform="translate(-23.431 -8.385)" fill="#2d2d2d"/>
    <path id="Path_41060" data-name="Path 41060" d="M62.158,19.5a3.076,3.076,0,1,0-3.076-3.076A3.079,3.079,0,0,0,62.158,19.5m0-4.479a1.4,1.4,0,1,1-1.4,1.4,1.405,1.405,0,0,1,1.4-1.4" transform="translate(-37.125 -8.385)" fill="#2d2d2d"/>
    <path id="Path_41061" data-name="Path 41061" d="M45.186,86.525H19.636A4.144,4.144,0,0,0,15.5,90.664V92.7a4.144,4.144,0,0,0,4.139,4.14H45.186a4.144,4.144,0,0,0,4.14-4.14V90.664a4.144,4.144,0,0,0-4.14-4.139M47.653,92.7a2.47,2.47,0,0,1-2.467,2.467H19.636A2.47,2.47,0,0,1,17.169,92.7V90.664A2.47,2.47,0,0,1,19.636,88.2H45.186a2.47,2.47,0,0,1,2.467,2.467Z" transform="translate(-9.738 -54.369)" fill="#2d2d2d"/>
    <path id="Path_41062" data-name="Path 41062" d="M48.489,123.993H16.333a.836.836,0,0,0,0,1.672H48.489a.836.836,0,0,0,0-1.672" transform="translate(-9.738 -77.912)" fill="#2d2d2d"/>
    <path id="Path_41063" data-name="Path 41063" d="M48.489,138.522H16.333a.836.836,0,0,0,0,1.672H48.489a.836.836,0,1,0,0-1.672" transform="translate(-9.738 -87.041)" fill="#2d2d2d"/>
    <path id="Path_41064" data-name="Path 41064" d="M202.652,50.492l-2.943,2.943a.929.929,0,1,0,1.314,1.314l2.943-2.943a.929.929,0,1,0-1.314-1.314" transform="translate(-125.318 -31.556)" fill="#2d2d2d"/>
    <path id="Path_41065" data-name="Path 41065" d="M179.851,73.294l-2.943,2.943a.929.929,0,1,0,1.314,1.314l2.943-2.943a.929.929,0,1,0-1.314-1.314" transform="translate(-110.99 -45.884)" fill="#2d2d2d"/>
    <path id="Path_41066" data-name="Path 41066" d="M179.851,54.75a.929.929,0,0,0,1.314-1.314l-2.943-2.943a.929.929,0,1,0-1.314,1.314Z" transform="translate(-110.99 -31.556)" fill="#2d2d2d"/>
    <path id="Path_41067" data-name="Path 41067" d="M201.023,73.294a.929.929,0,1,0-1.314,1.314l2.943,2.943a.929.929,0,1,0,1.314-1.314Z" transform="translate(-125.318 -45.884)" fill="#2d2d2d"/>
  </g>
</svg>
