<svg id="Group_16489" data-name="Group 16489" xmlns="http://www.w3.org/2000/svg" xmlns:xlink="http://www.w3.org/1999/xlink" width="112.005" height="110.445" viewBox="0 0 112.005 110.445">
  <defs>
    <clipPath id="clip-path">
      <rect id="Rectangle_8448" data-name="Rectangle 8448" width="112.005" height="110.445" fill="#5f6b2f"/>
    </clipPath>
  </defs>
  <g id="Group_16488" data-name="Group 16488" clip-path="url(#clip-path)">
    <path id="Path_41097" data-name="Path 41097" d="M176.513,172.9a1.133,1.133,0,0,1-1.118-1.318l8.94-54.005a1.132,1.132,0,1,1,2.234.37l-8.941,54.006a1.132,1.132,0,0,1-1.116.947" transform="translate(-95.949 -63.806)" fill="#5f6b2f"/>
    <path id="Path_41098" data-name="Path 41098" d="M199.4,92.155a1.133,1.133,0,0,1-1.118-1.317l1.059-6.4a1.132,1.132,0,1,1,2.234.37l-1.059,6.4a1.132,1.132,0,0,1-1.116.947" transform="translate(-108.471 -45.68)" fill="#5f6b2f"/>
    <path id="Path_41099" data-name="Path 41099" d="M203.324,73.736a1.133,1.133,0,0,1-1.118-1.318l.335-2.025a1.132,1.132,0,1,1,2.234.37l-.336,2.025a1.132,1.132,0,0,1-1.116.947" transform="translate(-110.617 -37.993)" fill="#5f6b2f"/>
    <path id="Path_41100" data-name="Path 41100" d="M180.477,96.856a1.131,1.131,0,0,1-.922-.473l-3.774-5.271a1.132,1.132,0,0,1,1.842-1.318l3.774,5.271a1.132,1.132,0,0,1-.92,1.792" transform="translate(-96.053 -48.867)" fill="#5f6b2f"/>
    <path id="Path_41101" data-name="Path 41101" d="M169.608,81.675a1.131,1.131,0,0,1-.922-.473l-1.195-1.669a1.132,1.132,0,0,1,1.842-1.318l1.195,1.669a1.133,1.133,0,0,1-.92,1.792" transform="translate(-91.518 -42.532)" fill="#5f6b2f"/>
    <path id="Path_41102" data-name="Path 41102" d="M211.245,139.833a1.131,1.131,0,0,1-.922-.473l-3.774-5.271a1.132,1.132,0,1,1,1.842-1.318l3.774,5.271a1.132,1.132,0,0,1-.92,1.791" transform="translate(-112.886 -72.38)" fill="#5f6b2f"/>
    <path id="Path_41103" data-name="Path 41103" d="M222.65,155.764a1.131,1.131,0,0,1-.922-.473l-1.195-1.669a1.132,1.132,0,1,1,1.841-1.318l1.195,1.669a1.132,1.132,0,0,1-.92,1.791" transform="translate(-120.537 -83.065)" fill="#5f6b2f"/>
    <path id="Path_41104" data-name="Path 41104" d="M169.516,114.466a1.13,1.13,0,0,1-.186-.015l-6.4-1.059a1.132,1.132,0,0,1,.37-2.234l6.4,1.059a1.132,1.132,0,0,1-.183,2.25" transform="translate(-88.622 -60.805)" fill="#5f6b2f"/>
    <path id="Path_41105" data-name="Path 41105" d="M151.095,111.417a1.13,1.13,0,0,1-.186-.015l-2.025-.335a1.132,1.132,0,1,1,.37-2.234l2.025.335a1.132,1.132,0,0,1-.183,2.25" transform="translate(-80.935 -59.533)" fill="#5f6b2f"/>
    <path id="Path_41106" data-name="Path 41106" d="M221.661,123.1a1.13,1.13,0,0,1-.186-.015l-6.4-1.059a1.132,1.132,0,0,1,.37-2.234l6.4,1.059a1.132,1.132,0,0,1-.183,2.25" transform="translate(-117.15 -65.529)" fill="#5f6b2f"/>
    <path id="Path_41107" data-name="Path 41107" d="M240.989,126.3a1.131,1.131,0,0,1-.186-.015l-2.025-.335a1.132,1.132,0,1,1,.37-2.234l2.025.335a1.132,1.132,0,0,1-.183,2.25" transform="translate(-130.116 -67.675)" fill="#5f6b2f"/>
    <path id="Path_41108" data-name="Path 41108" d="M168.945,133.884a1.132,1.132,0,0,1-.66-2.053l5.271-3.774a1.132,1.132,0,0,1,1.318,1.842l-5.271,3.774a1.128,1.128,0,0,1-.658.212" transform="translate(-91.809 -69.944)" fill="#5f6b2f"/>
    <path id="Path_41109" data-name="Path 41109" d="M157.366,145.289a1.132,1.132,0,0,1-.66-2.053l1.669-1.195a1.132,1.132,0,1,1,1.318,1.841l-1.669,1.2a1.13,1.13,0,0,1-.659.212" transform="translate(-85.474 -77.594)" fill="#5f6b2f"/>
    <path id="Path_41110" data-name="Path 41110" d="M211.922,103.117a1.132,1.132,0,0,1-.66-2.053l5.271-3.774a1.132,1.132,0,1,1,1.318,1.841L212.58,102.9a1.125,1.125,0,0,1-.658.212" transform="translate(-115.322 -53.111)" fill="#5f6b2f"/>
    <path id="Path_41111" data-name="Path 41111" d="M231.454,92.248a1.132,1.132,0,0,1-.66-2.053L232.463,89a1.132,1.132,0,1,1,1.318,1.841l-1.669,1.2a1.13,1.13,0,0,1-.659.212" transform="translate(-126.007 -48.576)" fill="#5f6b2f"/>
    <path id="Path_41112" data-name="Path 41112" d="M83.7,150.707a1.133,1.133,0,0,1-1.126-1.024L75.421,74.832a1.132,1.132,0,1,1,2.254-.216l7.155,74.851a1.133,1.133,0,0,1-1.019,1.235c-.037,0-.073,0-.109,0" transform="translate(-41.259 -40.261)" fill="#5f6b2f"/>
    <path id="Path_41113" data-name="Path 41113" d="M71.37,21.7a1.132,1.132,0,0,1-1.126-1.024l-.27-2.824a1.132,1.132,0,1,1,2.254-.216l.27,2.824a1.133,1.133,0,0,1-1.019,1.235c-.037,0-.073,0-.109,0" transform="translate(-38.279 -9.087)" fill="#5f6b2f"/>
    <path id="Path_41114" data-name="Path 41114" d="M73.761,46.727A1.133,1.133,0,0,1,72.635,45.7L71.573,34.586a1.132,1.132,0,1,1,2.254-.215L74.89,45.487a1.132,1.132,0,0,1-1.019,1.235c-.037,0-.073.005-.109.005" transform="translate(-39.154 -18.244)" fill="#5f6b2f"/>
    <path id="Path_41115" data-name="Path 41115" d="M69.635,5.088a1.133,1.133,0,0,1-1.126-1.024l-.27-2.824a1.132,1.132,0,0,1,2.255-.216l.27,2.824a1.132,1.132,0,0,1-1.019,1.235c-.037,0-.073.005-.109.005" transform="translate(-37.33 0)" fill="#5f6b2f"/>
    <path id="Path_41116" data-name="Path 41116" d="M56.5,39.692a1.132,1.132,0,0,1-1-.6l-1.018-1.917a1.132,1.132,0,0,1,2-1.062L57.5,38.029a1.133,1.133,0,0,1-1,1.664" transform="translate(-29.734 -19.428)" fill="#5f6b2f"/>
    <path id="Path_41117" data-name="Path 41117" d="M50.41,28.458a1.132,1.132,0,0,1-1-.6L48.392,25.94a1.132,1.132,0,1,1,2-1.062l1.018,1.917a1.133,1.133,0,0,1-1,1.664" transform="translate(-26.402 -13.281)" fill="#5f6b2f"/>
    <path id="Path_41118" data-name="Path 41118" d="M96.609,115.491a1.132,1.132,0,0,1-1-.6l-1.018-1.917a1.132,1.132,0,1,1,2-1.062l1.018,1.917a1.133,1.133,0,0,1-1,1.664" transform="translate(-51.677 -60.897)" fill="#5f6b2f"/>
    <path id="Path_41119" data-name="Path 41119" d="M102.7,126.725a1.132,1.132,0,0,1-1-.6l-1.018-1.917a1.132,1.132,0,1,1,2-1.062l1.018,1.917a1.133,1.133,0,0,1-1,1.664" transform="translate(-55.009 -67.043)" fill="#5f6b2f"/>
    <path id="Path_41120" data-name="Path 41120" d="M33.256,41.868a1.126,1.126,0,0,1-.72-.259L30.349,39.8a1.132,1.132,0,0,1,1.442-1.746l2.188,1.806a1.132,1.132,0,0,1-.721,2.005" transform="translate(-16.378 -20.679)" fill="#5f6b2f"/>
    <path id="Path_41121" data-name="Path 41121" d="M52.645,57.873a1.126,1.126,0,0,1-.72-.259l-8.612-7.109a1.132,1.132,0,0,1,1.442-1.746l8.612,7.109a1.132,1.132,0,0,1-.721,2.005" transform="translate(-23.471 -26.534)" fill="#5f6b2f"/>
    <path id="Path_41122" data-name="Path 41122" d="M20.283,31.348a1.126,1.126,0,0,1-.72-.259l-2.188-1.806a1.132,1.132,0,0,1,1.442-1.746L21,29.343a1.132,1.132,0,0,1-.721,2.005" transform="translate(-9.281 -14.923)" fill="#5f6b2f"/>
    <path id="Path_41123" data-name="Path 41123" d="M119.606,113.339a1.127,1.127,0,0,1-.721-.259l-2.188-1.806a1.132,1.132,0,1,1,1.442-1.746l2.188,1.806a1.132,1.132,0,0,1-.721,2.005" transform="translate(-63.62 -59.78)" fill="#5f6b2f"/>
    <path id="Path_41124" data-name="Path 41124" d="M98.882,96.23a1.126,1.126,0,0,1-.72-.259L89.55,88.862a1.132,1.132,0,0,1,1.442-1.746L99.6,94.225a1.132,1.132,0,0,1-.721,2.005" transform="translate(-48.767 -47.519)" fill="#5f6b2f"/>
    <path id="Path_41125" data-name="Path 41125" d="M132.578,123.859a1.126,1.126,0,0,1-.72-.259l-2.188-1.806a1.132,1.132,0,0,1,1.442-1.746l2.188,1.806a1.132,1.132,0,0,1-.721,2.005" transform="translate(-70.717 -65.536)" fill="#5f6b2f"/>
    <path id="Path_41126" data-name="Path 41126" d="M35.464,65.107a1.127,1.127,0,0,1-.332-.05l-2.075-.636a1.132,1.132,0,1,1,.664-2.165l2.075.636a1.132,1.132,0,0,1-.331,2.215" transform="translate(-17.647 -34.033)" fill="#5f6b2f"/>
    <path id="Path_41127" data-name="Path 41127" d="M23.215,61.469a1.127,1.127,0,0,1-.332-.05l-2.075-.636a1.132,1.132,0,1,1,.664-2.165l2.075.636a1.133,1.133,0,0,1-.332,2.215" transform="translate(-10.946 -32.042)" fill="#5f6b2f"/>
    <path id="Path_41128" data-name="Path 41128" d="M117.424,90.344a1.127,1.127,0,0,1-.332-.05l-2.075-.636a1.132,1.132,0,1,1,.664-2.165l2.075.636a1.132,1.132,0,0,1-.331,2.215" transform="translate(-62.487 -47.839)" fill="#5f6b2f"/>
    <path id="Path_41129" data-name="Path 41129" d="M129.673,93.981a1.13,1.13,0,0,1-.332-.05l-2.075-.636a1.132,1.132,0,1,1,.664-2.165l2.075.636a1.133,1.133,0,0,1-.332,2.215" transform="translate(-69.189 -49.829)" fill="#5f6b2f"/>
    <path id="Path_41130" data-name="Path 41130" d="M17.743,83.024a1.132,1.132,0,0,1-.106-2.26l2.824-.27a1.132,1.132,0,1,1,.216,2.254l-2.824.27c-.037,0-.073.005-.109.005" transform="translate(-9.088 -44.035)" fill="#5f6b2f"/>
    <path id="Path_41131" data-name="Path 41131" d="M34.478,80.467a1.132,1.132,0,0,1-.106-2.26l11.116-1.063A1.132,1.132,0,1,1,45.7,79.4L34.587,80.462c-.037,0-.073,0-.109,0" transform="translate(-18.244 -42.203)" fill="#5f6b2f"/>
    <path id="Path_41132" data-name="Path 41132" d="M1.131,84.758a1.132,1.132,0,0,1-.106-2.26l2.824-.27a1.132,1.132,0,1,1,.216,2.255l-2.824.269c-.037,0-.073.005-.109.005" transform="translate(0 -44.984)" fill="#5f6b2f"/>
    <path id="Path_41133" data-name="Path 41133" d="M129.339,72.5a1.132,1.132,0,0,1-.106-2.259l2.824-.27a1.132,1.132,0,0,1,.216,2.255l-2.824.27c-.037,0-.073,0-.109,0" transform="translate(-70.142 -38.28)" fill="#5f6b2f"/>
    <path id="Path_41134" data-name="Path 41134" d="M94.295,74.895a1.132,1.132,0,0,1-.106-2.26L105.3,71.573a1.132,1.132,0,1,1,.216,2.254L94.4,74.889c-.037,0-.073.005-.109.005" transform="translate(-50.969 -39.154)" fill="#5f6b2f"/>
    <path id="Path_41135" data-name="Path 41135" d="M145.951,70.768a1.132,1.132,0,0,1-.106-2.26l2.824-.27a1.132,1.132,0,1,1,.216,2.255l-2.824.269c-.037,0-.073.005-.109.005" transform="translate(-79.23 -37.33)" fill="#5f6b2f"/>
    <path id="Path_41136" data-name="Path 41136" d="M36.644,97.74a1.132,1.132,0,0,1-.532-2.133l1.917-1.018a1.133,1.133,0,0,1,1.063,2l-1.918,1.018a1.125,1.125,0,0,1-.529.132" transform="translate(-19.428 -51.677)" fill="#5f6b2f"/>
    <path id="Path_41137" data-name="Path 41137" d="M25.411,103.83a1.132,1.132,0,0,1-.532-2.133l1.917-1.018a1.132,1.132,0,0,1,1.062,2L25.941,103.7a1.127,1.127,0,0,1-.53.132" transform="translate(-13.282 -55.009)" fill="#5f6b2f"/>
    <path id="Path_41138" data-name="Path 41138" d="M112.443,57.631a1.132,1.132,0,0,1-.532-2.133l1.917-1.017a1.132,1.132,0,1,1,1.062,2L112.973,57.5a1.127,1.127,0,0,1-.53.132" transform="translate(-60.897 -29.734)" fill="#5f6b2f"/>
    <path id="Path_41139" data-name="Path 41139" d="M123.677,51.542a1.132,1.132,0,0,1-.532-2.133l1.917-1.017a1.132,1.132,0,1,1,1.061,2l-1.917,1.018a1.127,1.127,0,0,1-.53.132" transform="translate(-67.043 -26.403)" fill="#5f6b2f"/>
    <path id="Path_41140" data-name="Path 41140" d="M38.93,120.739a1.132,1.132,0,0,1-.872-1.853l1.806-2.188a1.132,1.132,0,0,1,1.746,1.442L39.8,120.328a1.131,1.131,0,0,1-.874.411" transform="translate(-20.679 -63.62)" fill="#5f6b2f"/>
    <path id="Path_41141" data-name="Path 41141" d="M49.632,100.014a1.132,1.132,0,0,1-.873-1.853l7.109-8.611a1.132,1.132,0,1,1,1.746,1.442L50.506,99.6a1.131,1.131,0,0,1-.874.412" transform="translate(-26.534 -48.767)" fill="#5f6b2f"/>
    <path id="Path_41142" data-name="Path 41142" d="M28.41,133.711a1.132,1.132,0,0,1-.873-1.853l1.806-2.188a1.132,1.132,0,0,1,1.746,1.442L29.284,133.3a1.131,1.131,0,0,1-.874.412" transform="translate(-14.924 -70.717)" fill="#5f6b2f"/>
    <path id="Path_41143" data-name="Path 41143" d="M110.4,34.389a1.132,1.132,0,0,1-.872-1.853l1.806-2.188a1.132,1.132,0,0,1,1.746,1.442l-1.806,2.188a1.131,1.131,0,0,1-.874.411" transform="translate(-59.78 -16.378)" fill="#5f6b2f"/>
    <path id="Path_41144" data-name="Path 41144" d="M87.99,53.777a1.132,1.132,0,0,1-.873-1.853l7.109-8.611a1.132,1.132,0,1,1,1.746,1.442l-7.108,8.612a1.131,1.131,0,0,1-.874.411" transform="translate(-47.52 -23.471)" fill="#5f6b2f"/>
    <path id="Path_41145" data-name="Path 41145" d="M120.92,21.416a1.132,1.132,0,0,1-.873-1.852l1.806-2.188a1.132,1.132,0,0,1,1.746,1.442l-1.806,2.188a1.13,1.13,0,0,1-.874.411" transform="translate(-65.535 -9.281)" fill="#5f6b2f"/>
    <path id="Path_41146" data-name="Path 41146" d="M63.339,118.555a1.134,1.134,0,0,1-1.083-1.464l.636-2.075a1.132,1.132,0,0,1,2.165.664l-.636,2.075a1.132,1.132,0,0,1-1.082.8" transform="translate(-34.033 -62.486)" fill="#5f6b2f"/>
    <path id="Path_41147" data-name="Path 41147" d="M59.7,130.8a1.133,1.133,0,0,1-1.083-1.464l.636-2.075a1.132,1.132,0,0,1,2.165.664L60.783,130a1.132,1.132,0,0,1-1.082.8" transform="translate(-32.042 -69.188)" fill="#5f6b2f"/>
    <path id="Path_41148" data-name="Path 41148" d="M88.575,36.6a1.134,1.134,0,0,1-1.083-1.464l.636-2.075a1.132,1.132,0,0,1,2.165.664L89.657,35.8a1.132,1.132,0,0,1-1.082.8" transform="translate(-47.839 -17.647)" fill="#5f6b2f"/>
    <path id="Path_41149" data-name="Path 41149" d="M92.213,24.346a1.134,1.134,0,0,1-1.083-1.464l.636-2.075a1.132,1.132,0,0,1,2.165.664L93.3,23.545a1.133,1.133,0,0,1-1.082.8" transform="translate(-49.83 -10.945)" fill="#5f6b2f"/>
    <path id="Path_41150" data-name="Path 41150" d="M40.228,184.144a1.132,1.132,0,0,1-.8-1.933l3.588-3.587a1.132,1.132,0,0,1,1.6,1.6l-3.587,3.587a1.128,1.128,0,0,1-.8.332" transform="translate(-21.389 -97.543)" fill="#5f6b2f"/>
    <path id="Path_41151" data-name="Path 41151" d="M17.426,206.945a1.132,1.132,0,0,1-.8-1.933l3.587-3.587a1.132,1.132,0,0,1,1.6,1.6l-3.587,3.587a1.129,1.129,0,0,1-.8.332" transform="translate(-8.914 -110.017)" fill="#5f6b2f"/>
    <path id="Path_41152" data-name="Path 41152" d="M21.013,184.144a1.129,1.129,0,0,1-.8-.332l-3.587-3.587a1.132,1.132,0,0,1,1.6-1.6l3.587,3.587a1.132,1.132,0,0,1-.8,1.933" transform="translate(-8.914 -97.543)" fill="#5f6b2f"/>
    <path id="Path_41153" data-name="Path 41153" d="M43.815,206.945a1.129,1.129,0,0,1-.8-.332l-3.587-3.587a1.132,1.132,0,1,1,1.6-1.6l3.587,3.587a1.132,1.132,0,0,1-.8,1.933" transform="translate(-21.389 -110.017)" fill="#5f6b2f"/>
    <path id="Path_41154" data-name="Path 41154" d="M206.443,18.793a1.132,1.132,0,0,1-.8-1.933l3.587-3.587a1.132,1.132,0,1,1,1.6,1.6l-3.587,3.587a1.129,1.129,0,0,1-.8.332" transform="translate(-112.325 -7.08)" fill="#5f6b2f"/>
    <path id="Path_41155" data-name="Path 41155" d="M183.641,41.595a1.132,1.132,0,0,1-.8-1.933l3.587-3.587a1.132,1.132,0,0,1,1.6,1.6l-3.587,3.587a1.129,1.129,0,0,1-.8.332" transform="translate(-99.85 -19.555)" fill="#5f6b2f"/>
    <path id="Path_41156" data-name="Path 41156" d="M187.228,18.793a1.129,1.129,0,0,1-.8-.332l-3.587-3.587a1.132,1.132,0,0,1,1.6-1.6l3.587,3.587a1.132,1.132,0,0,1-.8,1.933" transform="translate(-99.85 -7.08)" fill="#5f6b2f"/>
    <path id="Path_41157" data-name="Path 41157" d="M210.03,41.595a1.129,1.129,0,0,1-.8-.332l-3.587-3.587a1.132,1.132,0,1,1,1.6-1.6l3.587,3.587a1.132,1.132,0,0,1-.8,1.933" transform="translate(-112.324 -19.555)" fill="#5f6b2f"/>
  </g>
</svg>
