<svg xmlns="http://www.w3.org/2000/svg" width="27.011" height="27.054" viewBox="0 0 27.011 27.054">
  <g id="bxl-instagram" transform="translate(-4.503 -4.508)">
    <path id="Path_741" data-name="Path 741" d="M18,11.066A6.936,6.936,0,1,0,24.934,18,6.936,6.936,0,0,0,18,11.066Zm0,11.441A4.506,4.506,0,1,1,22.5,18,4.506,4.506,0,0,1,18,22.507Z" fill="#2d2d2d"/>
    <path id="Path_742" data-name="Path 742" d="M26.826,10.81a1.617,1.617,0,1,1-1.617-1.617A1.617,1.617,0,0,1,26.826,10.81Z" fill="#2d2d2d"/>
    <path id="Path_743" data-name="Path 743" d="M30.8,9.166a6.908,6.908,0,0,0-3.95-3.947,9.909,9.909,0,0,0-3.279-.63c-1.444-.063-1.9-.081-5.565-.081s-4.133,0-5.565.081a9.831,9.831,0,0,0-3.276.63,6.9,6.9,0,0,0-3.95,3.948,9.877,9.877,0,0,0-.628,3.279c-.065,1.443-.084,1.9-.084,5.565s0,4.13.084,5.565a9.887,9.887,0,0,0,.628,3.28A6.915,6.915,0,0,0,9.166,30.8a9.876,9.876,0,0,0,3.277.675c1.444.063,1.9.083,5.565.083s4.133,0,5.565-.083a9.922,9.922,0,0,0,3.279-.628A6.92,6.92,0,0,0,30.8,26.9a9.852,9.852,0,0,0,.628-3.279c.065-1.443.084-1.9.084-5.565s0-4.13-.084-5.565A9.872,9.872,0,0,0,30.8,9.167Zm-1.827,14.3A7.565,7.565,0,0,1,28.506,26a4.481,4.481,0,0,1-2.568,2.567,7.478,7.478,0,0,1-2.5.467c-1.425.066-1.827.083-5.481.083s-4.03,0-5.482-.083a7.44,7.44,0,0,1-2.5-.467A4.478,4.478,0,0,1,7.388,26a7.62,7.62,0,0,1-.467-2.5c-.065-1.425-.08-1.827-.08-5.481s0-4.029.08-5.482A7.557,7.557,0,0,1,7.388,10,4.482,4.482,0,0,1,9.967,7.432a7.515,7.515,0,0,1,2.5-.467C13.9,6.9,14.3,6.882,17.952,6.882s4.03,0,5.481.083a7.44,7.44,0,0,1,2.505.467A4.487,4.487,0,0,1,28.506,10a7.62,7.62,0,0,1,.467,2.5c.065,1.426.081,1.827.081,5.482s0,4.047-.065,5.481h-.017Z" fill="#2d2d2d"/>
  </g>
</svg>
