<svg xmlns="http://www.w3.org/2000/svg" width="176.866" height="69.095" viewBox="0 0 176.866 69.095">
  <g id="logo-vellee" transform="translate(0)">
    <g id="Layer_1" transform="translate(0 0)">
      <g id="Group_16311" data-name="Group 16311" transform="translate(40.152 48.847)">
        <path id="Path_40943" data-name="Path 40943" d="M247.913,333.32h7.06v.756h-6.194v10.632h5.171v.756h-5.171v6.645h6.194v.756h-7.06Z" transform="translate(-247.913 -332.981)" fill="#5f6b2f"/>
        <path id="Path_40944" data-name="Path 40944" d="M300.287,372.078h.761l-5.8,12.065-5.827-12.065h.919l4.987,10.293Z" transform="translate(-281.048 -363.921)" fill="#5f6b2f"/>
        <path id="Path_40945" data-name="Path 40945" d="M357.642,383.086h-.236a6.345,6.345,0,0,1-6.194-6.2,5.819,5.819,0,0,1,1.837-4.287,6.215,6.215,0,0,1,4.541-1.811,6.068,6.068,0,0,1,4.646,2.137L353.994,381a5.349,5.349,0,0,0,3.281,1.355,5.556,5.556,0,0,0,2.821-.717,6.189,6.189,0,0,0,2.06-1.915v1.329A5.9,5.9,0,0,1,357.642,383.086Zm-.276-11.57a5.108,5.108,0,0,0-3.7,1.6,5.051,5.051,0,0,0-1.614,3.687,5.316,5.316,0,0,0,1.391,3.648l7.638-7.531A5.519,5.519,0,0,0,357.367,371.515Z" transform="translate(-330.375 -362.89)" fill="#5f6b2f"/>
        <path id="Path_40946" data-name="Path 40946" d="M419.064,382.67h-.84V370.943h.84v2.371a4.7,4.7,0,0,1,4.567-2.658,5.135,5.135,0,0,1,5.2,5.186v6.828h-.84v-6.828a4.373,4.373,0,0,0-1.273-3.127,4.113,4.113,0,0,0-3.084-1.329,4.456,4.456,0,0,0-3.189,1.329,4.207,4.207,0,0,0-1.378,3.127Z" transform="translate(-383.871 -362.787)" fill="#5f6b2f"/>
        <path id="Path_40947" data-name="Path 40947" d="M489.594,364.564v.73a4.46,4.46,0,0,1-3.176-1.238,4.159,4.159,0,0,1-1.312-3.166v-12.2h.84v4.743h3.622v.73h-3.622v6.723a3.6,3.6,0,0,0,3.648,3.674Z" transform="translate(-437.262 -345.254)" fill="#5f6b2f"/>
        <path id="Path_40948" data-name="Path 40948" d="M517.429,371.257a1.818,1.818,0,0,0-1.207.443,1.378,1.378,0,0,0-.525,1.094,1.617,1.617,0,0,0,.591,1.2,7.153,7.153,0,0,0,1.417,1q.827.456,1.667.977a5.074,5.074,0,0,1,1.43,1.329,3.055,3.055,0,0,1,.591,1.85,3.439,3.439,0,0,1-1.168,2.619,4,4,0,0,1-2.822,1.082,4.289,4.289,0,0,1-1.955-.456,3,3,0,0,1-1.325-1.212v-1.251a3.486,3.486,0,0,0,5.5,1.355,2.465,2.465,0,0,0,.932-1.863,2.6,2.6,0,0,0-.591-1.733,5.484,5.484,0,0,0-1.43-1.2q-.84-.495-1.667-.977a5.471,5.471,0,0,1-1.417-1.173,2.408,2.408,0,0,1-.591-1.616,1.981,1.981,0,0,1,.748-1.564,2.868,2.868,0,0,1,1.929-.638,2.652,2.652,0,0,1,2.021.912v1.068a2.491,2.491,0,0,0-2.126-1.251Z" transform="translate(-460.425 -362.684)" fill="#5f6b2f"/>
        <path id="Path_40949" data-name="Path 40949" d="M612.671,333.022a4.41,4.41,0,0,0-2.323-.625,3.208,3.208,0,0,0-2.192.795,2.746,2.746,0,0,0-.906,2.176v.13a3.78,3.78,0,0,0,1.837,3,18.852,18.852,0,0,0,1.772,1.134q.984.561,1.969,1.2a14.574,14.574,0,0,1,1.785,1.355,5.713,5.713,0,0,1,1.313,1.759,5.134,5.134,0,0,1,.512,2.293v.261a4.929,4.929,0,0,1-1.693,3.935,6.186,6.186,0,0,1-4.186,1.459,5.8,5.8,0,0,1-5.092-2.684V347.8a5.874,5.874,0,0,0,2.008,2.41,5.614,5.614,0,0,0,3.294.925,5.042,5.042,0,0,0,3.412-1.251,4.193,4.193,0,0,0,1.444-3.336v-.156a4.379,4.379,0,0,0-.683-2.384,5.921,5.921,0,0,0-1.706-1.772q-1.024-.69-2.231-1.446t-2.231-1.407a5.883,5.883,0,0,1-1.706-1.642,3.729,3.729,0,0,1-.682-2.163v-.182a3.392,3.392,0,0,1,1.181-2.788,4.458,4.458,0,0,1,2.913-.964,4.649,4.649,0,0,1,3.832,1.772v1.329a4.515,4.515,0,0,0-1.64-1.72Z" transform="translate(-533.345 -331.641)" fill="#5f6b2f"/>
        <path id="Path_40950" data-name="Path 40950" d="M676.054,364.564v.73a4.46,4.46,0,0,1-3.176-1.238,4.159,4.159,0,0,1-1.312-3.166v-12.2h.84v4.743h3.622v.73h-3.622v6.723a3.6,3.6,0,0,0,3.648,3.674Z" transform="translate(-586.111 -345.254)" fill="#5f6b2f"/>
        <path id="Path_40951" data-name="Path 40951" d="M712.688,372.078h.84V383.8h-.84v-2.371a4.7,4.7,0,0,1-4.567,2.658,5.135,5.135,0,0,1-5.2-5.186v-6.828h.84v6.828a4.372,4.372,0,0,0,1.273,3.127,4.113,4.113,0,0,0,3.084,1.329,4.457,4.457,0,0,0,3.189-1.329,4.206,4.206,0,0,0,1.378-3.127Z" transform="translate(-611.145 -363.921)" fill="#5f6b2f"/>
        <path id="Path_40952" data-name="Path 40952" d="M778.995,333.32v19.544h-.84v-2.84a5.8,5.8,0,0,1-2.283,2.28,6.164,6.164,0,0,1-3.071.847,6.043,6.043,0,0,1-4.422-1.811,6.072,6.072,0,0,1,0-8.678,6.045,6.045,0,0,1,4.422-1.811,6.251,6.251,0,0,1,3.136.86A5.346,5.346,0,0,1,778.155,344V333.32Zm-11.6,13.694a5.243,5.243,0,0,0,1.575,3.8,5.124,5.124,0,0,0,3.793,1.6,5.254,5.254,0,0,0,3.832-1.6,5.165,5.165,0,0,0,1.614-3.792,5.539,5.539,0,0,0-5.433-5.446,5.133,5.133,0,0,0-3.793,1.616,5.265,5.265,0,0,0-1.588,3.818Z" transform="translate(-661.94 -332.981)" fill="#5f6b2f"/>
        <path id="Path_40953" data-name="Path 40953" d="M844.605,352.427q-.762,0-.761-.7t.761-.7q.761,0,.761.7T844.605,352.427Zm.42,2.867v11.7h-.84v-11.7Z" transform="translate(-723.64 -347.111)" fill="#5f6b2f"/>
        <path id="Path_40954" data-name="Path 40954" d="M865.564,381.093a6.032,6.032,0,0,1-1.811-4.339,5.819,5.819,0,0,1,1.837-4.287,6.289,6.289,0,0,1,8.832,0,5.855,5.855,0,0,1,1.824,4.3,6.05,6.05,0,0,1-1.785,4.339,5.793,5.793,0,0,1-4.331,1.85h-.236a5.828,5.828,0,0,1-4.331-1.863Zm9.843-4.274A5.266,5.266,0,0,0,873.818,373a5.134,5.134,0,0,0-3.793-1.616,5.391,5.391,0,0,0-3.819,9.238,5.253,5.253,0,0,0,3.832,1.6,5.125,5.125,0,0,0,3.793-1.6,5.244,5.244,0,0,0,1.575-3.8Z" transform="translate(-739.532 -362.787)" fill="#5f6b2f"/>
      </g>
      <path id="Path_40955" data-name="Path 40955" d="M124.076,89.585c-3.26-.769-8.638,2.58-16.44,10.237-6.7,6.572-13.987,15.117-20.419,22.657l-.2.237c-.948,1.116-1.795,2.117-2.557,3.018-4.26,5.038-5.857,6.641-7.917,8.372-1.174.987-1.716,1.2-2.117.9-.317-.24-.166-1.019.7-3.424,1.463-4.045,4.143-9.9,7.853-17.993,2.44-5.326,5.477-11.954,8.873-19.628a2.41,2.41,0,0,0-.764-2.775c-.6-.577-1.761-.511-3.2.179a72.765,72.765,0,0,0-7.778,4.854c-.845.561-1.71,1.141-2.545,1.7-9.133,6.13-18.576,12.469-23.377,7.009a.751.751,0,0,0-.565-.244c-1.291-.077-4.109,1.555-4.538,1.969a.759.759,0,0,0-.23.537.625.625,0,0,0,.171.452,7.029,7.029,0,0,0,5.565,2.279,22.77,22.77,0,0,0,8.733-2.264c5.874-2.56,12.327-6.851,17.512-10.3l.024-.016A39.063,39.063,0,0,1,86.287,94a2.51,2.51,0,0,1,2.438.131c.329.31.362.782.1,1.4l-.982,2.123c-8.032,17.354-12.457,26.913-14.815,33.484-1.844,5.038-2.318,7.811-1.449,8.476a.822.822,0,0,0,.516.162,3.7,3.7,0,0,0,1.885-.846c2.42-1.679,7.1-7.135,13.023-14.042l1.07-1.248a244.822,244.822,0,0,1,19.553-21.018c7.048-6.511,12.108-9.46,15.044-8.767l.014,0h.015c.915-.028,1.568-2.14,1.875-3.4l0-.013a.686.686,0,0,0-.5-.866Z" transform="translate(-48.851 -89.477)" fill="#5f6b2f"/>
      <path id="Path_40956" data-name="Path 40956" d="M269.173,237.959l-.005-.008a.72.72,0,0,0-.931-.17c-3.5,2.477-6.764,4.58-9.687,6.25a29.822,29.822,0,0,1-6.494,2.859c-1.125.233-1.8.18-2.05-.165-.288-.39-.082-1.175.668-2.545a19.566,19.566,0,0,1,3.77-4.654h.086a28.712,28.712,0,0,0,6.114-1.463c1.607-.617,2.648-1.534,2.784-2.454a1.125,1.125,0,0,0-.44-1.093c-.753-.584-2.91-.516-4.572.183a22.689,22.689,0,0,0-9.676,8.839,3.647,3.647,0,0,0,.376,3.961,2.233,2.233,0,0,0,1.919.789,5.974,5.974,0,0,0,1.313-.164,28.846,28.846,0,0,0,6.795-2.926c3.229-1.873,6.453-3.937,9.859-6.312A.719.719,0,0,0,269.173,237.959Zm-7.119-2.512a.108.108,0,0,1,.047.11c-.036.271-.71.8-2.136,1.382a21.992,21.992,0,0,1-3.6.981,15.2,15.2,0,0,1,3.288-2,5.775,5.775,0,0,1,2.036-.557A.628.628,0,0,1,262.053,235.447Z" transform="translate(-208.077 -204.946)" fill="#5f6b2f"/>
      <path id="Path_40957" data-name="Path 40957" d="M474.973,238.109l.675-.157a4.368,4.368,0,0,0-2.449-.031c-3.5,2.477-5.246,4.44-8.169,6.11a29.821,29.821,0,0,1-6.494,2.859c-1.125.233-1.8.18-2.05-.165-.288-.39-.082-1.175.668-2.545a19.567,19.567,0,0,1,3.77-4.654h.086a28.711,28.711,0,0,0,6.114-1.463c1.607-.617,2.648-1.534,2.783-2.454a1.125,1.125,0,0,0-.44-1.093c-.753-.584-2.91-.516-4.572.183a22.689,22.689,0,0,0-9.676,8.839,3.647,3.647,0,0,0,.376,3.961,2.233,2.233,0,0,0,1.919.789,5.975,5.975,0,0,0,1.313-.164,28.847,28.847,0,0,0,6.795-2.926c3.229-1.873,5.341-4.261,8.747-6.637.281-.225.786-.149.6-.453Zm-6.439-2.662a.108.108,0,0,1,.047.11c-.036.271-.71.8-2.136,1.382a21.991,21.991,0,0,1-3.6.982,15.2,15.2,0,0,1,3.289-2,5.775,5.775,0,0,1,2.036-.557A.628.628,0,0,1,468.534,235.447Z" transform="translate(-372.909 -204.946)" fill="#5f6b2f"/>
      <path id="Path_40958" data-name="Path 40958" d="M370.7,120.815a1.511,1.511,0,0,0-1.473-.209h0c-1.3.354-3.505,1.918-5.764,4.083-5.475,5.263-13.266,14.686-17.57,22.52-1.979,1.623-4.19,3.276-6.394,4.782l-.084.057c-4.656,3.161-7.695,4.611-9.036,4.31-.585-.106-.7-.863-.62-1.533a17.415,17.415,0,0,1,1.767-4.673,22.006,22.006,0,0,1,1.137-2.12c.882-.77,1.711-1.489,2.512-2.183,5.537-4.8,9.195-7.97,14.477-14.391,2.854-3.461,4.047-6.285,3.011-7.16-1.234-1.043-4.358.325-7.744,4.044-5.156,5.647-11.878,14.2-15.282,21.281a19.394,19.394,0,0,0-1.831,4.973,2.644,2.644,0,0,0,2.337,2.894,3.228,3.228,0,0,0,.572.048c2.54,0,6.55-2.493,9.435-4.437,1.332-.919,2.862-1.985,4.3-3.1a17.111,17.111,0,0,0-1.645,4.593c-.213,1.652.332,2.625,1.622,2.894a3.227,3.227,0,0,0,.572.048c2.539,0,6.55-2.493,9.435-4.437,2.265-1.544,4.555-3.258,6.623-4.954a.649.649,0,0,0,.063-.935l-.005-.006a.716.716,0,0,0-.435-.2.545.545,0,0,0-.443.146c-1.934,1.587-4.167,3.261-6.457,4.843l-.083.057c-4.656,3.161-7.7,4.612-9.036,4.31-.585-.106-.7-.863-.62-1.533a17.414,17.414,0,0,1,1.766-4.673,22.058,22.058,0,0,1,1.137-2.12c7.217-6.3,14.194-12.55,20.221-19.7,2.186-2.633,3.543-4.754,3.819-5.972a1.613,1.613,0,0,0-.282-1.543Zm-1,1.249c-.289,1.1-1.542,3.032-3.53,5.445-4.5,5.246-9.626,10.131-16.89,16.72a115.8,115.8,0,0,1,15.118-18.654c2.285-2.133,4.042-3.425,5.078-3.736a1.451,1.451,0,0,1,.249-.058.039.039,0,0,1,.015,0A.681.681,0,0,1,369.693,122.064ZM351.563,125.3a.255.255,0,0,1,.175.055c.36.321-.452,2.111-3.086,5.283a90.757,90.757,0,0,1-13.7,13.653,111.611,111.611,0,0,1,11.929-15.278C349.387,126.391,350.983,125.3,351.563,125.3Z" transform="translate(-271.517 -114.256)" fill="#5f6b2f"/>
      <path id="Path_40959" data-name="Path 40959" d="M600.035,242.267a.76.76,0,0,0-.415-.411c-.554-.222-3.777-.673-4.945-.111a.749.749,0,0,0-.43.434c-.629,1.811-2.781,3.081-6.222,3.675-3.633.627-8.525.253-14.234-.5-9.414-1.238-18.4-2.537-27.87-2.021-9.521.518-20.971,3.158-23.946,3.542-1.3.167-2.189-.008-2.43-.334-.36-.486.211-1.661.671-2.5a19.513,19.513,0,0,1,3.75-4.633h.076a28.753,28.753,0,0,0,6.123-1.466c1.621-.622,2.671-1.551,2.809-2.486a1.164,1.164,0,0,0-.455-1.131c-.765-.593-2.937-.527-4.613.177a22.735,22.735,0,0,0-9.7,8.857,3.925,3.925,0,0,0,.172,3.651,1.935,1.935,0,0,0,1.433,1.087c.034.008.075.016.123.024a3.638,3.638,0,0,0,.62.048,17.5,17.5,0,0,0,4.69-.64c19.3-4.992,32.741-3.736,48.5-.931a84.9,84.9,0,0,0,14.168,1.576c.785,0,1.554-.023,2.3-.073,5.486-.369,8.7-2.119,9.835-5.345a.629.629,0,0,0-.009-.49Zm-68.5-6.946a.069.069,0,0,1,.031.072c-.026.193-.5.7-2.11,1.35a21.484,21.484,0,0,1-3.418.945,14.783,14.783,0,0,1,3.137-1.883h0a5.657,5.657,0,0,1,2.021-.552A.6.6,0,0,1,531.534,235.321Z" transform="translate(-423.223 -204.787)" fill="#5f6b2f"/>
    </g>
  </g>
</svg>
