<svg id="Group_16487" data-name="Group 16487" xmlns="http://www.w3.org/2000/svg" xmlns:xlink="http://www.w3.org/1999/xlink" width="89.233" height="85.381" viewBox="0 0 89.233 85.381">
  <defs>
    <clipPath id="clip-path">
      <rect id="Rectangle_8446" data-name="Rectangle 8446" width="89.233" height="85.381" fill="none"/>
    </clipPath>
  </defs>
  <g id="Group_16486" data-name="Group 16486" clip-path="url(#clip-path)">
    <path id="Path_41084" data-name="Path 41084" d="M33.809,113.216H.93A.929.929,0,0,1,0,112.226L4.458,45.166a.929.929,0,0,1,.927-.867H64.676a.929.929,0,0,1,.927.867l.1,1.454a.929.929,0,0,1-1.854.123l-.039-.586H6.254l-4.332,65.2H33.809a.929.929,0,1,1,0,1.858" transform="translate(0 -27.836)" fill="#2d2d2d"/>
    <path id="Path_41085" data-name="Path 41085" d="M56.971,128.493a.926.926,0,0,1-.657-.272c-1.548-1.548-3.13-3.116-4.659-4.632-2.534-2.512-5.154-5.109-7.7-7.7-.414-.42-.835-.84-1.259-1.261-3.467-3.445-7.051-7.008-7.657-12.247-.463-4.005.457-7.5,2.592-9.851A12.267,12.267,0,0,1,51.1,89.7a10.448,10.448,0,0,1,5.868,5.278,9.586,9.586,0,0,1,1.381-2.153.929.929,0,1,1,1.417,1.2A7.9,7.9,0,0,0,57.9,99.282a.929.929,0,0,1-1.858,0,8.275,8.275,0,0,0-5.609-7.85A10.539,10.539,0,0,0,39,93.784c-1.024,1.126-2.661,3.713-2.121,8.387.531,4.593,3.882,7.922,7.122,11.142.429.426.855.85,1.273,1.275,2.541,2.58,5.157,5.173,7.687,7.681,1.531,1.517,3.114,3.087,4.665,4.638a.929.929,0,0,1-.657,1.586" transform="translate(-21.941 -55.806)" fill="#2d2d2d"/>
    <path id="Path_41086" data-name="Path 41086" d="M84.039,17.6a.929.929,0,0,1-.929-.929V12.187a9.586,9.586,0,0,0-3.364-7.513,13.538,13.538,0,0,0-16.529,0,9.587,9.587,0,0,0-3.364,7.513v4.485a.929.929,0,1,1-1.858,0V12.187C57.994,5.125,63.666,0,71.481,0S84.968,5.125,84.968,12.187v4.485a.929.929,0,0,1-.929.929" transform="translate(-36.441)" fill="#2d2d2d"/>
    <path id="Path_41087" data-name="Path 41087" d="M149.805,141.812h-51a.929.929,0,0,1-.927-.991l3.332-50.146a.929.929,0,0,1,.927-.867h44.337a.929.929,0,0,1,.927.867l3.331,50.146a.929.929,0,0,1-.927.991M99.8,139.953h49.015L145.6,91.665h-42.6Z" transform="translate(-61.501 -56.431)" fill="#2d2d2d"/>
    <path id="Path_41088" data-name="Path 41088" d="M140.711,153.236a.928.928,0,0,1-.657-.272q-1.737-1.737-3.485-3.464c-1.895-1.878-3.854-3.821-5.76-5.756-.309-.313-.624-.626-.94-.941-2.621-2.6-5.331-5.3-5.794-9.3a8.8,8.8,0,0,1,12.333-9.732,8.126,8.126,0,0,1,4.3,3.643,8.126,8.126,0,0,1,4.3-3.643,8.8,8.8,0,0,1,12.333,9.732h0c-.463,4-3.173,6.693-5.794,9.3-.316.314-.631.627-.94.941-1.905,1.934-3.864,3.875-5.757,5.753q-1.747,1.731-3.489,3.468a.928.928,0,0,1-.657.272m-7.884-28.27a7.264,7.264,0,0,0-5.38,2.238c-1.722,1.893-1.7,4.626-1.527,6.087.388,3.353,2.864,5.814,5.258,8.193.321.319.64.637.954.955,1.9,1.928,3.854,3.866,5.745,5.74q1.418,1.406,2.834,2.814,1.416-1.412,2.837-2.818c1.89-1.873,3.844-3.81,5.741-5.737.313-.318.633-.635.954-.955,2.394-2.38,4.87-4.841,5.258-8.193.169-1.461.2-4.194-1.527-6.087a7.642,7.642,0,0,0-8.29-1.7,5.89,5.89,0,0,0-4.045,5.652.929.929,0,1,1-1.858,0,5.89,5.89,0,0,0-4.045-5.652,8.077,8.077,0,0,0-2.91-.54m23.6,8.432h0Z" transform="translate(-77.908 -77.347)" fill="#2d2d2d"/>
    <path id="Path_41089" data-name="Path 41089" d="M160.953,70.31a.929.929,0,0,1-.929-.929V66.027c0-4.409-3.48-7.489-8.462-7.489s-8.462,3.08-8.462,7.489v3.354a.929.929,0,1,1-1.858,0V66.027c0-5.416,4.34-9.347,10.32-9.347s10.32,3.931,10.32,9.347v3.354a.929.929,0,0,1-.929.929" transform="translate(-88.751 -35.615)" fill="#2d2d2d"/>
    <path id="Path_41090" data-name="Path 41090" d="M211.114,9.473a.929.929,0,0,1-.657-1.586L213.4,4.943a.929.929,0,1,1,1.314,1.314L211.771,9.2a.926.926,0,0,1-.657.272" transform="translate(-132.071 -2.935)" fill="#2d2d2d"/>
    <path id="Path_41091" data-name="Path 41091" d="M188.311,32.274a.929.929,0,0,1-.657-1.586l2.944-2.943a.929.929,0,1,1,1.314,1.314L188.968,32a.926.926,0,0,1-.657.272" transform="translate(-117.743 -17.262)" fill="#2d2d2d"/>
    <path id="Path_41092" data-name="Path 41092" d="M191.255,9.473A.926.926,0,0,1,190.6,9.2l-2.943-2.943a.929.929,0,1,1,1.314-1.314l2.944,2.943a.929.929,0,0,1-.657,1.586" transform="translate(-117.743 -2.935)" fill="#2d2d2d"/>
    <path id="Path_41093" data-name="Path 41093" d="M214.057,32.274A.925.925,0,0,1,213.4,32l-2.943-2.943a.929.929,0,0,1,1.314-1.314l2.943,2.943a.929.929,0,0,1-.657,1.586" transform="translate(-132.071 -17.262)" fill="#2d2d2d"/>
    <path id="Path_41094" data-name="Path 41094" d="M35.846,190.751a.929.929,0,0,1-.657-1.586l2.943-2.943a.929.929,0,1,1,1.314,1.314L36.5,190.479a.926.926,0,0,1-.657.272" transform="translate(-21.94 -116.843)" fill="#2d2d2d"/>
    <path id="Path_41095" data-name="Path 41095" d="M38.79,167.949a.926.926,0,0,1-.657-.272l-2.943-2.943a.929.929,0,0,1,1.314-1.314l2.943,2.943a.929.929,0,0,1-.657,1.586" transform="translate(-21.94 -102.515)" fill="#2d2d2d"/>
    <path id="Path_41096" data-name="Path 41096" d="M61.593,190.751a.927.927,0,0,1-.657-.272l-2.943-2.943a.929.929,0,1,1,1.314-1.314l2.943,2.943a.929.929,0,0,1-.657,1.586" transform="translate(-36.269 -116.843)" fill="#2d2d2d"/>
  </g>
</svg>
