<svg id="Group_16485" data-name="Group 16485" xmlns="http://www.w3.org/2000/svg" xmlns:xlink="http://www.w3.org/1999/xlink" width="90.148" height="82.494" viewBox="0 0 90.148 82.494">
  <defs>
    <clipPath id="clip-path">
      <rect id="Rectangle_8445" data-name="Rectangle 8445" width="90.148" height="82.494" fill="none"/>
    </clipPath>
  </defs>
  <g id="Group_16484" data-name="Group 16484" clip-path="url(#clip-path)">
    <path id="Path_41068" data-name="Path 41068" d="M49.827,114.8a.924.924,0,0,1-.566-.193L18.219,90.71a.929.929,0,1,1,1.133-1.472l31.043,23.894a.929.929,0,0,1-.567,1.665" transform="translate(-11.22 -55.952)" fill="#2d2d2d"/>
    <path id="Path_41069" data-name="Path 41069" d="M154.948,114.766a.929.929,0,0,1-.567-1.666l31.05-23.867a.929.929,0,1,1,1.132,1.473l-31.05,23.867a.925.925,0,0,1-.566.193" transform="translate(-96.779 -55.949)" fill="#2d2d2d"/>
    <path id="Path_41070" data-name="Path 41070" d="M96.938,83.38H22.294a4.438,4.438,0,0,1-4.433-4.433V34.281a4.444,4.444,0,0,1,1.812-3.576l.024-.017,8.549-5.854V2.339a.929.929,0,0,1,.929-.929h60.9a.929.929,0,0,1,.929.929v22.4l8.555,5.953.025.017a4.458,4.458,0,0,1,1.784,3.557V77.1a.929.929,0,1,1-1.858,0V34.265a2.589,2.589,0,0,0-1.025-2.059l-8.94-6.22a.93.93,0,0,1-.4-.763V3.268H30.1V25.324a.929.929,0,0,1-.4.766l-8.941,6.123a2.579,2.579,0,0,0-1.04,2.068V78.948a2.562,2.562,0,0,0,.1.7l29.465-21.6,6.659-4.883a6.693,6.693,0,0,1,7.995.03l.026.021,6,4.817,30.184,22.455a.929.929,0,0,1,.148,1.353,4.432,4.432,0,0,1-3.355,1.535m-76-2.247a2.56,2.56,0,0,0,1.359.388H96.938a2.576,2.576,0,0,0,1.128-.26L68.838,59.518,68.81,59.5l-6-4.817a4.844,4.844,0,0,0-5.773-.012L50.38,59.55Z" transform="translate(-11.223 -0.886)" fill="#2d2d2d"/>
    <path id="Path_41071" data-name="Path 41071" d="M210.608,82.546a.929.929,0,0,1-.929-.929v-17.7a.929.929,0,0,1,1.858,0v17.7a.929.929,0,0,1-.929.929" transform="translate(-131.753 -39.578)" fill="#2d2d2d"/>
    <path id="Path_41072" data-name="Path 41072" d="M46.734,82.715a.929.929,0,0,1-.929-.929v-17.6a.929.929,0,1,1,1.858,0v17.6a.929.929,0,0,1-.929.929" transform="translate(-28.782 -39.747)" fill="#2d2d2d"/>
    <path id="Path_41073" data-name="Path 41073" d="M115.694,37.4H74.887a.929.929,0,1,1,0-1.858h40.807a.929.929,0,1,1,0,1.858" transform="translate(-46.472 -22.334)" fill="#2d2d2d"/>
    <path id="Path_41074" data-name="Path 41074" d="M115.694,71.365H74.887a.929.929,0,1,1,0-1.858h40.807a.929.929,0,1,1,0,1.858" transform="translate(-46.472 -43.675)" fill="#2d2d2d"/>
    <path id="Path_41075" data-name="Path 41075" d="M115.694,105.329H74.887a.929.929,0,1,1,0-1.858h40.807a.929.929,0,1,1,0,1.858" transform="translate(-46.472 -65.017)" fill="#2d2d2d"/>
    <path id="Path_41076" data-name="Path 41076" d="M120.342,137.207H96.776a.929.929,0,1,1,0-1.858h23.566a.929.929,0,0,1,0,1.858" transform="translate(-60.226 -85.048)" fill="#2d2d2d"/>
    <path id="Path_41077" data-name="Path 41077" d="M143.486,189.311a.929.929,0,0,1-.657-1.586l2.943-2.943a.929.929,0,0,1,1.314,1.314l-2.943,2.943a.926.926,0,0,1-.657.272" transform="translate(-89.577 -115.938)" fill="#2d2d2d"/>
    <path id="Path_41078" data-name="Path 41078" d="M146.43,166.509a.926.926,0,0,1-.657-.272l-2.943-2.943a.929.929,0,1,1,1.314-1.314l2.943,2.943a.929.929,0,0,1-.657,1.586" transform="translate(-89.577 -101.61)" fill="#2d2d2d"/>
    <path id="Path_41079" data-name="Path 41079" d="M169.233,189.311a.926.926,0,0,1-.657-.272l-2.943-2.943a.929.929,0,0,1,1.314-1.314l2.943,2.943a.929.929,0,0,1-.657,1.586" transform="translate(-103.905 -115.938)" fill="#2d2d2d"/>
    <path id="Path_41080" data-name="Path 41080" d="M23.731,4.8a.929.929,0,0,1-.657-1.586L26.017.272a.929.929,0,0,1,1.314,1.314L24.388,4.53a.926.926,0,0,1-.657.272" transform="translate(-14.328)" fill="#2d2d2d"/>
    <path id="Path_41081" data-name="Path 41081" d="M.929,27.6a.929.929,0,0,1-.657-1.586l2.944-2.943A.929.929,0,1,1,4.53,24.387L1.586,27.331a.926.926,0,0,1-.657.272" transform="translate(0 -14.327)" fill="#2d2d2d"/>
    <path id="Path_41082" data-name="Path 41082" d="M3.872,4.8a.926.926,0,0,1-.657-.272L.272,1.586A.929.929,0,0,1,1.585.272L4.529,3.215A.929.929,0,0,1,3.872,4.8" transform="translate(0)" fill="#2d2d2d"/>
    <path id="Path_41083" data-name="Path 41083" d="M26.675,27.6a.926.926,0,0,1-.657-.272l-2.943-2.943a.929.929,0,1,1,1.314-1.314l2.943,2.943a.929.929,0,0,1-.657,1.586" transform="translate(-14.328 -14.327)" fill="#2d2d2d"/>
  </g>
</svg>
